# xmcd
#
# Track frame offsets:
#	150
#	23082
#	42692
#	66237
#	88780
#	107617
#	122797
#	140875
#	159482
#	184142
#	200970
#
# Disc length: 2934 seconds
#
# Revision: 1
# Processed by: cddbd v1.5.1PL0 Copyright (c) Steve Scherf et al.
# Submitted via: CDex 1.50Beta5
#
DISCID=a80b740b
DTITLE=五島良子 - Five Island Resort
DYEAR=1994
DGENRE=
TTITLE0=パパはワンダーマン
TTITLE1=かなづちガール
TTITLE2=Hey girl
TTITLE3=ポケットに女神
TTITLE4=洗濯風
TTITLE5=ジャンティエール
TTITLE6=レモンのクッキー
TTITLE7=モーニング・グローリー
TTITLE8=ハミングバード
TTITLE9=白い色は恋人の色
TTITLE10=Two for the road
EXTD=
EXTT0=
EXTT1=
EXTT2=
EXTT3=
EXTT4=
EXTT5=
EXTT6=
EXTT7=
EXTT8=
EXTT9=
EXTT10=
PLAYORDER=
